<?xml version="1.0" standalone="no"?>
<!DOCTYPE svg PUBLIC "-//W3C//DTD SVG 20010904//EN"
 "http://www.w3.org/TR/2001/REC-SVG-20010904/DTD/svg10.dtd">
<svg version="1.0" xmlns="http://www.w3.org/2000/svg"
 width="107.000000pt" height="107.000000pt" viewBox="0 0 107.000000 107.000000"
 preserveAspectRatio="xMidYMid meet">
<metadata>
Created by potrace 1.14, written by Peter Selinger 2001-2017
</metadata>
<g transform="translate(0.000000,107.000000) scale(0.100000,-0.100000)"
fill="#000000" stroke="none">
<path d="M760 876 c-25 -7 -64 -25 -88 -40 -33 -20 -44 -23 -48 -13 -3 8 -4
18 -3 23 6 36 2 36 -173 32 -164 -4 -176 -5 -235 -32 -86 -39 -163 -125 -179
-199 -18 -80 -24 -143 -16 -152 4 -3 7 -19 8 -35 1 -15 5 -36 9 -46 5 -11 9
-21 10 -24 5 -21 38 -70 62 -91 73 -68 151 -88 358 -88 l163 0 -3 24 c-1 14
-1 25 0 25 1 0 29 -12 61 -27 53 -25 70 -28 164 -28 58 0 124 6 148 13 l42 13
0 68 0 69 -39 -14 c-185 -64 -323 17 -324 189 0 139 96 227 237 214 28 -2 68
-12 89 -20 l37 -16 0 73 c0 68 -2 74 -22 80 -48 14 -213 16 -258 2z m-289
-230 c1 -167 1 -279 0 -298 -2 -28 -140 -16 -196 16 -107 63 -123 239 -30 332
46 45 86 59 178 60 l47 1 1 -111z"/>
</g>
</svg>
